<svg id="WebMoney_logo_blue" xmlns="http://www.w3.org/2000/svg" width="206.414" height="62.55" viewBox="0 0 206.414 62.55">
  <path id="Combined-Shape" d="M745.282,54.039a21.031,21.031,0,0,1,9.124,2.078c.436.2.874.432,1.308.667l-1.9,1.687-2.855-2.941-4.919,4.314-2.9-3.1-9.045,8.04,5.791,6.314-2.261,1.96,5.713,6.314-2.261,1.96,8.173,8.981,4.837-4.393,4.207,4.707a23.489,23.489,0,0,1-2.737,1.8A20.919,20.919,0,0,1,745.323,95.1a20.53,20.53,0,1,1-.04-41.058Zm-3.809,19.256,4.959-4.393,4.444,4.9-4.96,4.392Zm3.532,8.471,4.919-4.431,4.483,4.9-4.959,4.393Zm-7.06-16.824,4.958-4.393,4.443,4.9-4.959,4.392Zm9.083-2.354,3.69-3.294,3.333,3.647-3.69,3.333Zm6.586,15.1,3.688-3.294,3.333,3.685-3.69,3.3Zm3.253,7.413,3.69-3.295,3.33,3.647L760.2,88.784Zm1.508-16.942,2.459-2.2,2.221,2.432-2.459,2.2ZM755.2,60.9l2.459-2.235,2.222,2.47-2.461,2.2Zm6.307,14.511,2.459-2.2,2.261,2.432-2.5,2.2ZM750.44,69.961l3.69-3.294,3.332,3.647-3.688,3.295Z" transform="translate(-573.47 -42.772)" fill="#9ea4c4"/>
  <g id="Group_3012" data-name="Group 3012" transform="translate(13.657 18.492)">
    <g id="Group-27" transform="translate(0 1.306)">
      <path id="Fill-25" d="M76.382,97.958h-.187L72.682,111.3H69.81L65.5,92.345h2.979l2.98,14.144h.186L75.1,92.345h2.369l3.7,14.144h.186L84.07,92.345h3.113L82.872,111.3H80Z" transform="translate(-65.5 -92.345)" fill="#9ea4c4"/>
    </g>
    <path id="Fill-28" d="M177.018,125.448h6.091c-.132-2.806-1.49-3.928-2.926-3.928-1.623,0-2.874,1.256-3.165,3.928m8.219,5.028v2.032a9.345,9.345,0,0,1-4.709,1.23c-4.468,0-6.3-2.781-6.3-7,0-4.066,2.048-7.007,6.039-7.007,3.325,0,5.374,2.167,5.374,6.524v.989h-8.673c0,3.207,1.3,4.625,4.044,4.625a8.1,8.1,0,0,0,4.229-1.389" transform="translate(-151.556 -113.256)" fill="#9ea4c4"/>
    <path id="Fill-30" d="M248.241,107.028a6.155,6.155,0,0,0,2.45.43c1.968,0,3.456-1.232,3.456-5.562,0-3.4-1.224-4.492-3.005-4.492a5.55,5.55,0,0,0-2.9.882v8.742Zm.028-10.72a7.979,7.979,0,0,1,3.59-.99c3.3,0,5.082,2.3,5.082,6.577,0,5-2.395,7.433-6.25,7.433a12.269,12.269,0,0,1-5.19-1.312V89.357l2.768-.667v7.619Z" transform="translate(-207.971 -88.689)" fill="#9ea4c4"/>
    <path id="Fill-32" d="M322.955,109.843h.133L328.78,94.9h3.3v18.957h-2.873V100.111h-.24l-5.428,13.743h-1.7l-5.429-13.422h-.239v13.422h-2.395V94.9H317Z" transform="translate(-262.011 -93.603)" fill="#9ea4c4"/>
    <path id="Fill-34" d="M422.426,126.733c0-3.609-1.462-5.132-3.271-5.132-1.755,0-3.273,1.523-3.273,5.132,0,3.663,1.385,5.132,3.273,5.132s3.271-1.469,3.271-5.132m-9.336,0c0-4.68,2.555-7.006,6.065-7.006s6.066,2.325,6.066,7.006c0,4.571-2.421,7.005-6.066,7.005s-6.065-2.434-6.065-7.005" transform="translate(-340.618 -113.256)" fill="#9ea4c4"/>
    <path id="Fill-36" d="M481.366,121.708a13.549,13.549,0,0,1,6.784-1.98c3.192,0,4.387,1.257,4.387,4.01v9.68h-2.765v-9.064c0-2.112-1.036-2.486-2.394-2.486a7.314,7.314,0,0,0-3.245.963v10.587h-2.767v-11.71Z" transform="translate(-394.658 -113.256)" fill="#9ea4c4"/>
    <path id="Fill-38" d="M552.432,125.448h6.092c-.131-2.806-1.489-3.928-2.926-3.928-1.623,0-2.872,1.256-3.166,3.928m8.219,5.028v2.032a9.345,9.345,0,0,1-4.708,1.23c-4.467,0-6.3-2.781-6.3-7,0-4.066,2.047-7.007,6.038-7.007,3.327,0,5.376,2.167,5.376,6.524v.989H552.38c0,3.207,1.3,4.625,4.044,4.625a8.1,8.1,0,0,0,4.228-1.389" transform="translate(-448.697 -113.256)" fill="#9ea4c4"/>
    <path id="Fill-40" d="M621.233,119.728h2.847l-4.816,13.366c-1.332,3.69-2.953,5.615-6.012,5.615v-2.191c1.81,0,2.926-1.444,3.566-3.424l-5.108-13.366h2.927l3.405,9.839h.16Z" transform="translate(-497.826 -113.256)" fill="#9ea4c4"/>
    <g id="Group_3011" data-name="Group 3011" transform="translate(28.471 23.299)">
      <path id="Sapienti-sat" d="M202.316,209.72v-1.154a6.233,6.233,0,0,0,2.815.752,2.98,2.98,0,0,0,1.7-.41,1.276,1.276,0,0,0,.6-1.106,1.2,1.2,0,0,0-.489-1.047,9.122,9.122,0,0,0-1.824-.859c-.309-.116-.506-.192-.6-.228s-.259-.108-.515-.214a3.435,3.435,0,0,1-.5-.241c-.08-.055-.213-.136-.4-.242a1.394,1.394,0,0,1-.383-.287c-.065-.086-.156-.194-.271-.324a1.059,1.059,0,0,1-.232-.388c-.039-.129-.077-.279-.112-.45a2.739,2.739,0,0,1-.053-.55,2.274,2.274,0,0,1,.839-1.838,3.529,3.529,0,0,1,2.32-.7,7.393,7.393,0,0,1,2.6.483v1.22a5.637,5.637,0,0,0-2.511-.616,1.985,1.985,0,0,0-1.322.373,1.246,1.246,0,0,0-.436.993,1.2,1.2,0,0,0,.436,1,6.152,6.152,0,0,0,1.56.759,10.415,10.415,0,0,1,2.656,1.289,2.058,2.058,0,0,1,.727,1.717,2.348,2.348,0,0,1-1,1.954,4.436,4.436,0,0,1-2.743.758A6.25,6.25,0,0,1,202.316,209.72Zm13.448.442h-1.255l-.093-.778a3.575,3.575,0,0,1-2.273.94,2,2,0,0,1-1.473-.517,1.759,1.759,0,0,1-.522-1.308,2.137,2.137,0,0,1,.152-.8,2.313,2.313,0,0,1,.5-.744,2.481,2.481,0,0,1,1.057-.584,5.7,5.7,0,0,1,1.7-.222h.82v-.362a1.735,1.735,0,0,0-.331-1.228,1.54,1.54,0,0,0-1.11-.329,4.97,4.97,0,0,0-2.339.792V203.95a6.669,6.669,0,0,1,2.8-.659,2.48,2.48,0,0,1,1.85.552,2.352,2.352,0,0,1,.516,1.662v4.657Zm-1.374-3.073h-.7q-2.168,0-2.167,1.3a.759.759,0,0,0,.291.664,1.217,1.217,0,0,0,.728.208,2.285,2.285,0,0,0,1.07-.269,2.258,2.258,0,0,0,.78-.616v-1.289Zm3.522,5.757v-8.574a4.746,4.746,0,0,1,1.375-.713,4.883,4.883,0,0,1,1.56-.269q2.748,0,2.749,3.37a4.3,4.3,0,0,1-.714,2.669,2.429,2.429,0,0,1-2.049.925,2.5,2.5,0,0,1-1.546-.468v3.059Zm1.361-8.119v4.067a1.679,1.679,0,0,0,.667.381,2.4,2.4,0,0,0,.707.127,1.339,1.339,0,0,0,1.143-.569,3.715,3.715,0,0,0,.416-2.073,2.953,2.953,0,0,0-.429-1.784,1.339,1.339,0,0,0-1.117-.564A2.4,2.4,0,0,0,219.273,204.727Zm7.474-1.367v6.8h-1.374v-6.467Zm-1.586-1.974a.884.884,0,0,1,.271-.638.854.854,0,0,1,1.256,0,.887.887,0,0,1,0,1.276.858.858,0,0,1-1.256,0A.885.885,0,0,1,225.161,201.386Zm6.734,8a4.135,4.135,0,0,0,2.1-.7v1.02a4.548,4.548,0,0,1-2.339.618,2.891,2.891,0,0,1-2.372-.926,3.973,3.973,0,0,1-.76-2.59,3.933,3.933,0,0,1,.779-2.549,2.691,2.691,0,0,1,2.22-.968,2.434,2.434,0,0,1,1.97.833,3.706,3.706,0,0,1,.7,2.442v.5h-4.308a2.632,2.632,0,0,0,.489,1.757A1.9,1.9,0,0,0,231.9,209.383Zm-.41-5.192a1.323,1.323,0,0,0-1.044.5,2.7,2.7,0,0,0-.528,1.476h3.026a2.481,2.481,0,0,0-.463-1.48A1.247,1.247,0,0,0,231.485,204.191Zm4.461,5.97v-5.876a6.376,6.376,0,0,1,3.371-.994,2.376,2.376,0,0,1,1.678.485,2.04,2.04,0,0,1,.5,1.529v4.857h-1.374v-4.548a1.263,1.263,0,0,0-.3-.992,1.34,1.34,0,0,0-.886-.255,3.165,3.165,0,0,0-1.612.483v5.312h-1.375Zm9.007-6.547h2.088l-.331.913h-1.758v3.541q0,1.342,1.137,1.342a2.286,2.286,0,0,0,.886-.188v.858a4.077,4.077,0,0,1-1.481.243,1.761,1.761,0,0,1-1.454-.572,2.3,2.3,0,0,1-.463-1.5v-5.527l1.374-1.007v1.894Zm4.779-.255v6.8h-1.375v-6.467Zm-1.586-1.974a.887.887,0,0,1,.27-.638.854.854,0,0,1,1.256,0,.886.886,0,0,1,0,1.276.857.857,0,0,1-1.256,0A.888.888,0,0,1,248.146,201.386Zm10.943,2.443V204.9a3.556,3.556,0,0,0-2.009-.669,1.605,1.605,0,0,0-.847.2.7.7,0,0,0-.33.642.766.766,0,0,0,.363.665,4.68,4.68,0,0,0,1.144.5q.436.148.654.228a5.569,5.569,0,0,1,.575.269,2.061,2.061,0,0,1,.535.376,1.881,1.881,0,0,1,.324.5,1.582,1.582,0,0,1,.145.684,1.753,1.753,0,0,1-.733,1.476,3.2,3.2,0,0,1-1.963.551,4.117,4.117,0,0,1-2.287-.592v-1.046a4.219,4.219,0,0,0,2.128.7q1.453,0,1.453-.966a.729.729,0,0,0-.086-.349.952.952,0,0,0-.2-.262,1.844,1.844,0,0,0-.364-.229,4.04,4.04,0,0,0-.423-.187q-.171-.06-.541-.194-.542-.2-.86-.349a3.759,3.759,0,0,1-.634-.382,1.414,1.414,0,0,1-.463-.557,1.848,1.848,0,0,1-.145-.765,1.714,1.714,0,0,1,.264-.965,1.481,1.481,0,0,1,.687-.578,3.935,3.935,0,0,1,.773-.241,3.572,3.572,0,0,1,.695-.069A4.516,4.516,0,0,1,259.089,203.829Zm7.3,6.333h-1.255l-.093-.778a3.574,3.574,0,0,1-2.273.94,2,2,0,0,1-1.474-.517,1.759,1.759,0,0,1-.522-1.308,2.135,2.135,0,0,1,.152-.8,2.3,2.3,0,0,1,.5-.744,2.483,2.483,0,0,1,1.057-.584,5.7,5.7,0,0,1,1.7-.222H265v-.362a1.742,1.742,0,0,0-.33-1.228,1.543,1.543,0,0,0-1.111-.329,4.97,4.97,0,0,0-2.34.792V203.95a6.67,6.67,0,0,1,2.8-.659,2.48,2.48,0,0,1,1.85.552,2.355,2.355,0,0,1,.516,1.662v4.657Zm-1.373-3.073h-.7q-2.168,0-2.168,1.3a.76.76,0,0,0,.291.664,1.215,1.215,0,0,0,.727.208,2.29,2.29,0,0,0,1.071-.269,2.266,2.266,0,0,0,.781-.616v-1.289Zm4.83-3.474h2.088l-.331.913h-1.757v3.541q0,1.342,1.135,1.342a2.285,2.285,0,0,0,.886-.188v.858a4.073,4.073,0,0,1-1.481.243,1.759,1.759,0,0,1-1.453-.572,2.3,2.3,0,0,1-.463-1.5v-5.527l1.376-1.007v1.894Z" transform="translate(-202.052 -200.435)" fill="#9ea4c4"/>
    </g>
  </g>
  <rect id="Rectangle_289" data-name="Rectangle 289" width="206.414" height="62.55" fill="none"/>
</svg>
